<svg width="13" height="17" viewBox="0 0 13 17" fill="none" xmlns="http://www.w3.org/2000/svg">
<path d="M5.57811 1.03446C5.96412 0.831611 6.55148 0.831611 6.9375 1.03446L10.8764 3.1044C11.1089 3.22657 11.2366 3.40862 11.2595 3.59655H11.2632V14.0011C11.2581 14.2061 11.1292 14.4097 10.8764 14.5426L6.9375 16.6125C6.55148 16.8154 5.96412 16.8154 5.57811 16.6125L1.63918 14.5426C1.38744 14.4103 1.26664 14.2052 1.26066 14.0011C1.26006 13.981 1.25999 13.9643 1.26056 13.9504L1.26054 3.66338C1.26014 3.65211 1.2601 3.64086 1.26042 3.62966L1.26066 3.59655L1.26242 3.59654C1.27992 3.40655 1.4018 3.22915 1.63918 3.1044L5.57811 1.03446ZM10.6431 9.4012L6.9375 11.3485C6.55148 11.5514 5.96412 11.5514 5.57811 11.3485L1.88057 9.40555V13.9805L5.57811 15.9133C5.7869 16.0244 6.0036 16.1326 6.2155 16.1464L6.25781 16.1477C6.47861 16.1485 6.69297 16.0369 6.91035 15.9313L10.6431 13.9639V9.4012ZM0.619994 13.7749C0.619994 14.1735 0.66656 14.4355 0.759016 14.6202C0.835648 14.7732 0.950629 14.89 1.16058 15.0324L1.17256 15.0404C1.21864 15.0713 1.26939 15.1037 1.33117 15.1417L1.40403 15.1861L1.62776 15.3205L1.30688 15.8483L1.05646 15.6978L1.01437 15.6721C0.941969 15.6276 0.881959 15.5895 0.825984 15.5519C0.227626 15.1505 0.00446992 14.713 6.66358e-05 13.8026L0 13.7749H0.619994ZM5.94772 6.61247C5.91904 6.62227 5.89217 6.6336 5.86766 6.64648L1.92873 8.71642C1.9246 8.71859 1.92066 8.72073 1.91691 8.72286L1.91357 8.72479L1.91975 8.7283L1.92873 8.73315L5.86766 10.8031C5.89217 10.816 5.91904 10.8273 5.94772 10.8371V6.61247ZM6.5679 6.61247V10.8371C6.59657 10.8273 6.62345 10.816 6.64794 10.8031L10.5869 8.73315C10.591 8.73098 10.595 8.72884 10.5987 8.72671L10.602 8.72479L10.5959 8.72127L10.5869 8.71642L6.64794 6.64648C6.62345 6.6336 6.59657 6.62227 6.5679 6.61247ZM10.6431 4.33462L7.1097 6.19149L10.6431 8.04835V4.33462ZM1.88057 4.33896V8.04401L5.40582 6.19149L1.88057 4.33896ZM6.64794 1.57993C6.44311 1.47228 6.07251 1.47228 5.86766 1.57993L1.92873 3.64987C1.9246 3.65204 1.92066 3.65419 1.91691 3.65631L1.91357 3.65823L1.91975 3.66176L1.92873 3.66661L5.86766 5.73654C6.07251 5.84418 6.44311 5.84418 6.64794 5.73654L10.5869 3.66661C10.591 3.66444 10.595 3.66229 10.5987 3.66015L10.602 3.65823L10.5959 3.65471L10.5869 3.64987L6.64794 1.57993ZM11.2253 1.80692L11.4757 1.95739L11.5178 1.9831C11.5902 2.02757 11.6502 2.06577 11.7062 2.10332C12.3045 2.50468 12.5277 2.94227 12.532 3.85258L12.5321 3.88031H11.9122C11.9122 3.48166 11.8656 3.21966 11.7731 3.03506C11.6965 2.88207 11.5815 2.76515 11.3716 2.62288L11.3596 2.6148C11.3135 2.58389 11.2628 2.55152 11.201 2.51346L11.1281 2.46907L10.9044 2.33474L11.2253 1.80692Z" fill="#1969FF"/>
</svg>
